<?xml version="1.0" encoding="UTF-8"?>
<!DOCTYPE svg PUBLIC "-//W3C//DTD SVG 1.1//EN" "http://www.w3.org/Graphics/SVG/1.1/DTD/svg11.dtd">
<svg xmlns="http://www.w3.org/2000/svg" version="1.1" width="370px" height="136px" style="shape-rendering:geometricPrecision; text-rendering:geometricPrecision; image-rendering:optimizeQuality; fill-rule:evenodd; clip-rule:evenodd" xmlns:xlink="http://www.w3.org/1999/xlink">
<g><path style="opacity:1" fill="#000000" d="M -0.5,-0.5 C 122.833,-0.5 246.167,-0.5 369.5,-0.5C 369.5,44.8333 369.5,90.1667 369.5,135.5C 246.167,135.5 122.833,135.5 -0.5,135.5C -0.5,90.1667 -0.5,44.8333 -0.5,-0.5 Z"/></g>
<g><path style="opacity:1" fill="#747474" d="M 193.5,19.5 C 192.244,23.2557 191.244,22.9223 190.5,18.5C 189.808,19.0253 189.308,19.6919 189,20.5C 187.951,18.8934 186.451,18.2267 184.5,18.5C 186.914,17.2814 189.247,15.7814 191.5,14C 192.833,13.3333 192.833,12.6667 191.5,12C 194.047,9.6388 194.88,10.1388 194,13.5C 192.833,14.6667 191.667,15.8333 190.5,17C 191.691,17.6979 192.691,18.5313 193.5,19.5 Z"/></g>
<g><path style="opacity:1" fill="#f2f2f2" d="M 184.5,18.5 C 186.451,18.2267 187.951,18.8934 189,20.5C 189.308,19.6919 189.808,19.0253 190.5,18.5C 191.244,22.9223 192.244,23.2557 193.5,19.5C 194.5,19.5 195.5,19.5 196.5,19.5C 196.351,20.552 196.517,21.552 197,22.5C 198.828,21.2475 200.661,21.2475 202.5,22.5C 203.558,23.6002 204.392,24.9336 205,26.5C 206.299,26.0338 207.799,26.0338 209.5,26.5C 209.194,29.3854 209.527,32.0521 210.5,34.5C 210.784,36.4147 210.451,38.0813 209.5,39.5C 207.847,39.6596 206.514,40.3263 205.5,41.5C 204.957,41.56 204.624,41.8933 204.5,42.5C 207.159,46.81 208.325,51.4767 208,56.5C 206.594,57.6682 205.428,57.3348 204.5,55.5C 201.315,57.037 198.648,56.3704 196.5,53.5C 195.059,55.8329 195.725,57.1662 198.5,57.5C 198.047,58.4584 197.381,59.2917 196.5,60C 193.896,60.3903 191.562,61.2237 189.5,62.5C 188.115,63.9473 188.448,64.9473 190.5,65.5C 193.833,65.1667 197.167,64.8333 200.5,64.5C 201.043,64.56 201.376,64.8933 201.5,65.5C 199.985,67.5473 199.151,69.8807 199,72.5C 196.758,74.7146 194.258,75.0479 191.5,73.5C 189.703,71.5662 188.703,69.2329 188.5,66.5C 187.5,66.5 186.5,66.5 185.5,66.5C 186.092,63.3695 185.092,61.0361 182.5,59.5C 181.158,55.6747 179.991,51.6747 179,47.5C 176.747,46.3902 175.581,44.5569 175.5,42C 175.855,38.3026 176.522,34.8026 177.5,31.5C 182.152,30.8965 183.652,28.2298 182,23.5C 181.617,22.944 181.117,22.6107 180.5,22.5C 180.062,22.5654 179.728,22.3988 179.5,22C 180.756,21.5831 181.423,20.7498 181.5,19.5C 182.609,19.4431 183.609,19.1098 184.5,18.5 Z"/></g>
<g><path style="opacity:1" fill="#313131" d="M 210.5,34.5 C 209.527,32.0521 209.194,29.3854 209.5,26.5C 207.799,26.0338 206.299,26.0338 205,26.5C 204.392,24.9336 203.558,23.6002 202.5,22.5C 202.495,19.6819 203.828,18.5152 206.5,19C 202.987,22.1669 203.654,22.8336 208.5,21C 207.029,19.0811 207.362,18.0811 209.5,18C 209.167,18.3333 208.833,18.6667 208.5,19C 209.685,20.353 211.019,21.5197 212.5,22.5C 211.349,23.731 210.183,23.731 209,22.5C 208.333,23.1667 208.333,23.8333 209,24.5C 210.73,24.5092 212.563,24.8425 214.5,25.5C 213.502,28.0278 212.669,28.0278 212,25.5C 210.608,28.2784 210.108,31.2784 210.5,34.5 Z"/></g>
<g><path style="opacity:1" fill="#636363" d="M 181.5,19.5 C 181.423,20.7498 180.756,21.5831 179.5,22C 179.728,22.3988 180.062,22.5654 180.5,22.5C 180.5,24.1667 180.5,25.8333 180.5,27.5C 179.62,25.8632 178.954,24.0299 178.5,22C 179.13,20.6898 180.13,19.8565 181.5,19.5 Z"/></g>
<g><path style="opacity:1" fill="#b1b1b1" d="M 180.5,22.5 C 181.117,22.6107 181.617,22.944 182,23.5C 183.652,28.2298 182.152,30.8965 177.5,31.5C 178.209,30.596 179.209,30.2627 180.5,30.5C 180.5,29.5 180.5,28.5 180.5,27.5C 180.5,25.8333 180.5,24.1667 180.5,22.5 Z"/></g>
<g><path style="opacity:1" fill="#d2d2d2" d="M 159.5,31.5 C 159.735,30.9033 160.235,30.5699 161,30.5C 163.133,31.6323 164.966,33.1323 166.5,35C 166.138,36.2247 165.638,37.3914 165,38.5C 164.578,34.9608 162.745,32.6275 159.5,31.5 Z"/></g>
<g><path style="opacity:1" fill="#414141" d="M 196.5,38.5 C 200.084,38.8204 200.751,39.9871 198.5,42C 194.972,42.0504 191.639,41.8837 188.5,41.5C 191.616,41.0799 194.283,40.0799 196.5,38.5 Z"/></g>
<g><path style="opacity:1" fill="#707070" d="M 209.5,39.5 C 209.719,40.675 209.386,41.675 208.5,42.5C 207.583,41.8728 206.583,41.5394 205.5,41.5C 206.514,40.3263 207.847,39.6596 209.5,39.5 Z"/></g>
<g><path style="opacity:1" fill="#acacac" d="M 165.5,40.5 C 166.776,41.3864 166.776,42.3864 165.5,43.5C 164.438,42.5754 164.438,41.5754 165.5,40.5 Z"/></g>
<g><path style="opacity:1" fill="#c6c6c6" d="M 159.5,35.5 C 160.497,35.4701 161.164,35.9701 161.5,37C 161.05,38.2853 160.383,39.452 159.5,40.5C 161.183,41.8534 162.516,43.5201 163.5,45.5C 161.385,49.1788 159.385,48.8454 157.5,44.5C 158.664,44.8346 159.997,44.8346 161.5,44.5C 158.378,42.1182 157.711,39.1182 159.5,35.5 Z"/></g>
<g><path style="opacity:1" fill="#9c9c9c" d="M 198.5,57.5 C 199.735,57.7214 200.735,58.3881 201.5,59.5C 202.167,59.1667 202.833,58.8333 203.5,58.5C 205.086,60.1727 205.753,62.1727 205.5,64.5C 203.8,64.3739 202.3,63.7073 201,62.5C 199.316,62.6834 199.15,63.3501 200.5,64.5C 197.167,64.8333 193.833,65.1667 190.5,65.5C 192.129,63.8041 191.796,62.8041 189.5,62.5C 191.562,61.2237 193.896,60.3903 196.5,60C 197.381,59.2917 198.047,58.4584 198.5,57.5 Z"/></g>
<g><path style="opacity:1" fill="#676767" d="M 182.5,59.5 C 185.092,61.0361 186.092,63.3695 185.5,66.5C 184.656,64.1572 183.656,61.8239 182.5,59.5 Z"/></g>
<g><path style="opacity:1" fill="#151515" d="M 189.5,62.5 C 191.796,62.8041 192.129,63.8041 190.5,65.5C 188.448,64.9473 188.115,63.9473 189.5,62.5 Z"/></g>
<g><path style="opacity:1" fill="#404040" d="M 185.5,66.5 C 186.5,66.5 187.5,66.5 188.5,66.5C 188.703,69.2329 189.703,71.5662 191.5,73.5C 190.417,73.4606 189.417,73.1272 188.5,72.5C 187.806,70.2452 186.806,68.2452 185.5,66.5 Z"/></g>
<g><path style="opacity:1" fill="#c2c2c2" d="M 111.5,92.5 C 111.5,100.5 111.5,108.5 111.5,116.5C 114.833,116.5 118.167,116.5 121.5,116.5C 118.038,117.482 114.371,117.815 110.5,117.5C 110.174,108.983 110.507,100.65 111.5,92.5 Z"/></g>
<g><path style="opacity:1" fill="#f3f3f3" d="M 111.5,92.5 C 115.911,92.021 120.078,92.6876 124,94.5C 124.929,97.7751 124.429,100.775 122.5,103.5C 123.242,104.287 124.075,104.953 125,105.5C 125.667,108.5 125.667,111.5 125,114.5C 124.184,115.823 123.017,116.489 121.5,116.5C 118.167,116.5 114.833,116.5 111.5,116.5C 111.5,108.5 111.5,100.5 111.5,92.5 Z"/></g>
<g><path style="opacity:1" fill="#fafafa" d="M 139.5,92.5 C 141.5,92.5 143.5,92.5 145.5,92.5C 145.674,94.861 146.007,97.1944 146.5,99.5C 146.987,100.473 147.487,101.473 148,102.5C 148.498,99.1832 148.665,95.8499 148.5,92.5C 149.833,92.5 151.167,92.5 152.5,92.5C 152.5,100.5 152.5,108.5 152.5,116.5C 150.833,116.5 149.167,116.5 147.5,116.5C 145.263,104.737 144.263,104.737 144.5,116.5C 142.833,116.5 141.167,116.5 139.5,116.5C 139.5,108.5 139.5,100.5 139.5,92.5 Z"/></g>
<g><path style="opacity:1" fill="#a0a0a0" d="M 152.5,92.5 C 153.493,100.65 153.826,108.983 153.5,117.5C 151.265,117.795 149.265,117.461 147.5,116.5C 149.167,116.5 150.833,116.5 152.5,116.5C 152.5,108.5 152.5,100.5 152.5,92.5 Z"/></g>
<g><path style="opacity:1" fill="#ececec" d="M 160.5,92.5 C 164.514,92.3345 168.514,92.5012 172.5,93C 175.116,96.4587 175.116,99.9587 172.5,103.5C 174.955,104.91 175.955,107.077 175.5,110C 175.919,112.981 174.919,115.314 172.5,117C 168.514,117.499 164.514,117.666 160.5,117.5C 160.5,109.167 160.5,100.833 160.5,92.5 Z"/></g>
<g><path style="opacity:1" fill="#f5f5f5" d="M 187.5,111.5 C 187.5,113.167 187.5,114.833 187.5,116.5C 184.167,116.5 180.833,116.5 177.5,116.5C 177.5,108.5 177.5,100.5 177.5,92.5C 180.833,92.5 184.167,92.5 187.5,92.5C 187.5,94.1667 187.5,95.8333 187.5,97.5C 186.167,97.5 184.833,97.5 183.5,97.5C 183.5,98.8333 183.5,100.167 183.5,101.5C 184.833,101.5 186.167,101.5 187.5,101.5C 187.5,103.167 187.5,104.833 187.5,106.5C 186.167,106.5 184.833,106.5 183.5,106.5C 183.5,108.167 183.5,109.833 183.5,111.5C 184.833,111.5 186.167,111.5 187.5,111.5 Z"/></g>
<g><path style="opacity:1" fill="#f8f8f8" d="M 189.5,92.5 C 191.5,92.5 193.5,92.5 195.5,92.5C 195.5,98.8333 195.5,105.167 195.5,111.5C 196.833,111.5 198.167,111.5 199.5,111.5C 199.5,113.167 199.5,114.833 199.5,116.5C 196.167,116.5 192.833,116.5 189.5,116.5C 189.5,108.5 189.5,100.5 189.5,92.5 Z"/></g>
<g><path style="opacity:1" fill="#e5e5e5" d="M 202.5,92.5 C 205.833,92.5 209.167,92.5 212.5,92.5C 214.152,100.736 215.152,109.069 215.5,117.5C 213.5,117.5 211.5,117.5 209.5,117.5C 209.5,115.833 209.5,114.167 209.5,112.5C 208.5,112.5 207.5,112.5 206.5,112.5C 206.5,114.167 206.5,115.833 206.5,117.5C 204.5,117.5 202.5,117.5 200.5,117.5C 201.249,109.174 201.916,100.84 202.5,92.5 Z"/></g>
<g><path style="opacity:1" fill="#f3f3f3" d="M 227.5,92.5 C 227.5,92.8333 227.5,93.1667 227.5,93.5C 224.49,100.866 223.157,108.533 223.5,116.5C 221.833,116.5 220.167,116.5 218.5,116.5C 218.81,113.287 218.477,110.287 217.5,107.5C 215.864,102.652 214.864,97.6517 214.5,92.5C 216.167,92.5 217.833,92.5 219.5,92.5C 220.8,101.724 221.466,101.724 221.5,92.5C 223.5,92.5 225.5,92.5 227.5,92.5 Z"/></g>
<g><path style="opacity:1" fill="#f7f7f7" d="M 256.5,92.5 C 256.5,100.5 256.5,108.5 256.5,116.5C 254.833,116.5 253.167,116.5 251.5,116.5C 251.666,111.821 251.499,107.155 251,102.5C 250.545,105.854 250.045,109.187 249.5,112.5C 249.5,113.833 249.5,115.167 249.5,116.5C 247.833,116.5 246.167,116.5 244.5,116.5C 244.5,114.167 244.5,111.833 244.5,109.5C 244.322,106.784 243.822,104.117 243,101.5C 242.501,106.489 242.334,111.489 242.5,116.5C 240.833,116.5 239.167,116.5 237.5,116.5C 237.5,108.5 237.5,100.5 237.5,92.5C 240.5,92.5 243.5,92.5 246.5,92.5C 246.515,105.749 247.182,105.749 248.5,92.5C 251.167,92.5 253.833,92.5 256.5,92.5 Z"/></g>
<g><path style="opacity:1" fill="#454545" d="M 256.5,92.5 C 257.167,99.1667 257.833,105.833 258.5,112.5C 259.919,111.549 261.585,111.216 263.5,111.5C 263.5,113.5 263.5,115.5 263.5,117.5C 259.167,117.5 254.833,117.5 250.5,117.5C 250.784,115.585 250.451,113.919 249.5,112.5C 250.045,109.187 250.545,105.854 251,102.5C 251.499,107.155 251.666,111.821 251.5,116.5C 253.167,116.5 254.833,116.5 256.5,116.5C 256.5,108.5 256.5,100.5 256.5,92.5 Z"/></g>
<g><path style="opacity:1" fill="#545454" d="M 189.5,92.5 C 189.5,100.5 189.5,108.5 189.5,116.5C 192.833,116.5 196.167,116.5 199.5,116.5C 192.167,117.833 184.833,117.833 177.5,116.5C 180.833,116.5 184.167,116.5 187.5,116.5C 187.5,114.833 187.5,113.167 187.5,111.5C 188.167,105.167 188.833,98.8333 189.5,92.5 Z"/></g>
<g><path style="opacity:1" fill="#212121" d="M 166.5,96.5 C 167.649,96.7911 168.316,97.6244 168.5,99C 168.167,99.8333 167.833,100.667 167.5,101.5C 166.548,99.9547 166.215,98.288 166.5,96.5 Z"/></g>
<g><path style="opacity:1" fill="#434343" d="M 116.5,96.5 C 117.649,96.7911 118.316,97.6244 118.5,99C 118.167,99.8333 117.833,100.667 117.5,101.5C 116.548,99.9547 116.215,98.288 116.5,96.5 Z"/></g>
<g><path style="opacity:1" fill="#959595" d="M 148.5,92.5 C 148.665,95.8499 148.498,99.1832 148,102.5C 147.487,101.473 146.987,100.473 146.5,99.5C 147.167,97.1667 147.833,94.8333 148.5,92.5 Z"/></g>
<g><path style="opacity:1" fill="#9b9b9b" d="M 227.5,93.5 C 227.5,93.1667 227.5,92.8333 227.5,92.5C 228.167,92.5 228.833,92.5 229.5,92.5C 229.5,100.5 229.5,108.5 229.5,116.5C 231.167,116.5 232.833,116.5 234.5,116.5C 234.5,108.5 234.5,100.5 234.5,92.5C 235.493,100.65 235.826,108.983 235.5,117.5C 233.167,117.5 230.833,117.5 228.5,117.5C 228.826,109.316 228.492,101.316 227.5,93.5 Z"/></g>
<g><path style="opacity:1" fill="#fefefe" d="M 229.5,92.5 C 231.167,92.5 232.833,92.5 234.5,92.5C 234.5,100.5 234.5,108.5 234.5,116.5C 232.833,116.5 231.167,116.5 229.5,116.5C 229.5,108.5 229.5,100.5 229.5,92.5 Z"/></g>
<g><path style="opacity:1" fill="#444444" d="M 166.5,105.5 C 167.725,106.152 168.392,107.319 168.5,109C 168.167,110.167 167.833,111.333 167.5,112.5C 166.526,110.257 166.192,107.924 166.5,105.5 Z"/></g>
<g><path style="opacity:1" fill="#474747" d="M 116.5,105.5 C 117.725,106.152 118.392,107.319 118.5,109C 118.167,110.167 117.833,111.333 117.5,112.5C 116.526,110.257 116.192,107.924 116.5,105.5 Z"/></g>
<g><path style="opacity:1" fill="#8b8b8b" d="M 244.5,109.5 C 243.527,111.948 243.194,114.615 243.5,117.5C 241.265,117.795 239.265,117.461 237.5,116.5C 239.167,116.5 240.833,116.5 242.5,116.5C 242.334,111.489 242.501,106.489 243,101.5C 243.822,104.117 244.322,106.784 244.5,109.5 Z"/></g>
<g><path style="opacity:1" fill="#8c8c8c" d="M 217.5,107.5 C 218.477,110.287 218.81,113.287 218.5,116.5C 220.167,116.5 221.833,116.5 223.5,116.5C 221.735,117.461 219.735,117.795 217.5,117.5C 217.5,114.167 217.5,110.833 217.5,107.5 Z"/></g>
<g><path style="opacity:1" fill="#5e5e5e" d="M 127.5,92.5 C 127.5,100.5 127.5,108.5 127.5,116.5C 130.833,116.5 134.167,116.5 137.5,116.5C 137.5,115.167 137.5,113.833 137.5,112.5C 135.901,112.768 134.568,112.434 133.5,111.5C 135.167,111.5 136.833,111.5 138.5,111.5C 138.177,104.978 138.51,98.6446 139.5,92.5C 139.5,100.5 139.5,108.5 139.5,116.5C 141.167,116.5 142.833,116.5 144.5,116.5C 138.69,117.49 132.69,117.823 126.5,117.5C 126.174,108.983 126.507,100.65 127.5,92.5 Z"/></g>
<g><path style="opacity:1" fill="#f7f7f7" d="M 127.5,92.5 C 130.833,92.5 134.167,92.5 137.5,92.5C 137.5,94.1667 137.5,95.8333 137.5,97.5C 136.167,97.5 134.833,97.5 133.5,97.5C 133.5,98.8333 133.5,100.167 133.5,101.5C 134.833,101.5 136.167,101.5 137.5,101.5C 137.5,103.167 137.5,104.833 137.5,106.5C 136.167,106.5 134.833,106.5 133.5,106.5C 133.5,108.167 133.5,109.833 133.5,111.5C 134.568,112.434 135.901,112.768 137.5,112.5C 137.5,113.833 137.5,115.167 137.5,116.5C 134.167,116.5 130.833,116.5 127.5,116.5C 127.5,108.5 127.5,100.5 127.5,92.5 Z"/></g>
<g><path style="opacity:1" fill="#fefefe" d="M 258.5,112.5 C 259.833,112.5 261.167,112.5 262.5,112.5C 262.5,113.833 262.5,115.167 262.5,116.5C 261.167,116.5 259.833,116.5 258.5,116.5C 258.5,115.167 258.5,113.833 258.5,112.5 Z"/></g>
</svg>
