<?xml version="1.0" encoding="UTF-8"?>
<!DOCTYPE svg PUBLIC "-//W3C//DTD SVG 1.1//EN" "http://www.w3.org/Graphics/SVG/1.1/DTD/svg11.dtd">
<svg xmlns="http://www.w3.org/2000/svg" version="1.1" width="400px" height="260px" style="shape-rendering:geometricPrecision; text-rendering:geometricPrecision; image-rendering:optimizeQuality; fill-rule:evenodd; clip-rule:evenodd" xmlns:xlink="http://www.w3.org/1999/xlink">
<g><path style="opacity:0.964" fill="#0d3857" d="M 181.5,-0.5 C 191.5,-0.5 201.5,-0.5 211.5,-0.5C 254.429,7.40211 283.929,31.7354 300,72.5C 312.565,115.736 303.398,153.57 272.5,186C 238.778,215.903 200.444,223.569 157.5,209C 119.069,192.564 96.2355,163.73 89,122.5C 85.0027,76.6699 101.836,40.8366 139.5,15C 152.679,7.2278 166.679,2.06113 181.5,-0.5 Z"/></g>
<g><path style="opacity:1" fill="#81b9e3" d="M 273.5,45.5 C 273.649,46.552 273.483,47.552 273,48.5C 242.834,13.3305 205.667,3.16388 161.5,18C 145.667,24.8476 132.5,35.0142 122,48.5C 120.961,47.7562 120.461,46.7562 120.5,45.5C 122.163,39.0009 125.33,33.3342 130,28.5C 148.405,10.9749 170.405,2.64161 196,3.5C 224.072,2.6291 247.738,12.2958 267,32.5C 270.206,36.36 272.373,40.6934 273.5,45.5 Z"/></g>
<g><path style="opacity:1" fill="#79acd1" d="M 273.5,45.5 C 276.249,54.1608 275.915,62.8275 272.5,71.5C 268.079,64.3601 262.912,57.6934 257,51.5C 255.333,53.1667 253.667,54.8333 252,56.5C 251.601,56.2716 251.435,55.9382 251.5,55.5C 255.663,51.1686 259.663,46.6686 263.5,42C 262.906,41.5357 262.239,41.369 261.5,41.5C 260.596,40.791 260.263,39.791 260.5,38.5C 259.127,38.6567 257.793,38.49 256.5,38C 243.545,26.8585 228.545,20.0252 211.5,17.5C 208.97,16.2243 206.303,16.2243 203.5,17.5C 201.941,16.9264 200.441,16.2598 199,15.5C 198.549,17.9288 197.715,18.0955 196.5,16C 195.167,15.3333 193.833,15.3333 192.5,16C 193.416,16.2784 194.082,16.7784 194.5,17.5C 191.5,17.1667 190.167,18.5 190.5,21.5C 189.778,21.0825 189.278,20.4158 189,19.5C 188.667,20.1667 188.333,20.8333 188,21.5C 187.333,20.1667 186.667,18.8333 186,17.5C 185.31,16.2617 184.81,16.2617 184.5,17.5C 182.517,17.1568 181.183,17.8235 180.5,19.5C 179.596,20.209 179.263,21.209 179.5,22.5C 163.022,25.0667 148.355,32.0667 135.5,43.5C 133.948,42.3782 132.282,41.8782 130.5,42C 132.667,45.3329 135.334,48.1663 138.5,50.5C 138.631,51.2389 138.464,51.9056 138,52.5C 135.609,49.4032 132.776,47.2365 129.5,46C 122.996,51.5035 119.662,58.3368 119.5,66.5C 118.461,60.2033 118.294,53.8699 119,47.5C 119.278,46.5842 119.778,45.9175 120.5,45.5C 120.461,46.7562 120.961,47.7562 122,48.5C 132.5,35.0142 145.667,24.8476 161.5,18C 205.667,3.16388 242.834,13.3305 273,48.5C 273.483,47.552 273.649,46.552 273.5,45.5 Z"/></g>
<g><path style="opacity:1" fill="#6697bd" d="M 211.5,17.5 C 209.011,17.2978 206.677,17.7978 204.5,19C 200.275,22.8961 195.775,26.3961 191,29.5C 190.228,29.3552 189.561,29.0219 189,28.5C 187.59,24.7642 186.09,21.0975 184.5,17.5C 184.81,16.2617 185.31,16.2617 186,17.5C 186.667,18.8333 187.333,20.1667 188,21.5C 188.333,20.8333 188.667,20.1667 189,19.5C 189.278,20.4158 189.778,21.0825 190.5,21.5C 191.072,24.2436 192.738,25.0769 195.5,24C 198.243,21.3891 197.91,19.2224 194.5,17.5C 194.082,16.7784 193.416,16.2784 192.5,16C 193.833,15.3333 195.167,15.3333 196.5,16C 197.715,18.0955 198.549,17.9288 199,15.5C 200.441,16.2598 201.941,16.9264 203.5,17.5C 206.303,16.2243 208.97,16.2243 211.5,17.5 Z"/></g>
<g><path style="opacity:1" fill="#f3f6f9" d="M 184.5,17.5 C 186.09,21.0975 187.59,24.7642 189,28.5C 189.561,29.0219 190.228,29.3552 191,29.5C 195.775,26.3961 200.275,22.8961 204.5,19C 206.677,17.7978 209.011,17.2978 211.5,17.5C 210.925,19.4113 209.925,21.078 208.5,22.5C 203.752,24.8824 199.752,28.2157 196.5,32.5C 194.284,33.2026 192.451,34.5359 191,36.5C 188.881,40.4023 187.048,44.4023 185.5,48.5C 183.683,50.51 181.683,50.8434 179.5,49.5C 181.219,44.3935 183.219,39.3935 185.5,34.5C 184.436,29.3075 182.769,24.3075 180.5,19.5C 181.183,17.8235 182.517,17.1568 184.5,17.5 Z"/></g>
<g><path style="opacity:1" fill="#f6f8fa" d="M 194.5,17.5 C 197.91,19.2224 198.243,21.3891 195.5,24C 192.738,25.0769 191.072,24.2436 190.5,21.5C 190.167,18.5 191.5,17.1667 194.5,17.5 Z"/></g>
<g><path style="opacity:1" fill="#709fbf" d="M 211.5,17.5 C 228.545,20.0252 243.545,26.8585 256.5,38C 257.793,38.49 259.127,38.6567 260.5,38.5C 260.263,39.791 260.596,40.791 261.5,41.5C 259.464,42.6262 258.13,44.2929 257.5,46.5C 257.103,45.475 256.437,45.3083 255.5,46C 253.317,48.3504 250.984,50.517 248.5,52.5C 239.238,44.7969 228.738,39.4635 217,36.5C 215.959,38.3115 214.793,38.6448 213.5,37.5C 214.906,37.0269 215.573,36.0269 215.5,34.5C 214.796,32.6558 213.463,32.1558 211.5,33C 209.295,35.5402 206.795,37.7068 204,39.5C 202.815,37.6228 201.815,35.6228 201,33.5C 200.329,32.7476 199.496,32.4142 198.5,32.5C 201.833,29.1667 205.167,25.8333 208.5,22.5C 209.925,21.078 210.925,19.4113 211.5,17.5 Z"/></g>
<g><path style="opacity:1" fill="#263f62" d="M 208.5,22.5 C 205.167,25.8333 201.833,29.1667 198.5,32.5C 198.167,32.5 197.833,32.5 197.5,32.5C 197.167,32.5 196.833,32.5 196.5,32.5C 199.752,28.2157 203.752,24.8824 208.5,22.5 Z"/></g>
<g><path style="opacity:1" fill="#31496a" d="M 180.5,19.5 C 182.769,24.3075 184.436,29.3075 185.5,34.5C 185.167,34.5 184.833,34.5 184.5,34.5C 183.345,30.2025 181.679,26.2025 179.5,22.5C 179.263,21.209 179.596,20.209 180.5,19.5 Z"/></g>
<g><path style="opacity:1" fill="#6f9ebd" d="M 179.5,22.5 C 181.679,26.2025 183.345,30.2025 184.5,34.5C 176.014,36.6071 167.68,39.4404 159.5,43C 154.405,45.6055 149.738,48.7722 145.5,52.5C 142.141,49.4715 138.808,46.4715 135.5,43.5C 148.355,32.0667 163.022,25.0667 179.5,22.5 Z"/></g>
<g><path style="opacity:1" fill="#f5f8fa" d="M 203.5,31.5 C 204.833,31.5 206.167,31.5 207.5,31.5C 207.884,33.6648 207.217,35.3315 205.5,36.5C 203.783,35.3315 203.116,33.6648 203.5,31.5 Z"/></g>
<g><path style="opacity:1" fill="#eef2f4" d="M 197.5,32.5 C 197.833,32.5 198.167,32.5 198.5,32.5C 199.496,32.4142 200.329,32.7476 201,33.5C 201.815,35.6228 202.815,37.6228 204,39.5C 206.795,37.7068 209.295,35.5402 211.5,33C 213.463,32.1558 214.796,32.6558 215.5,34.5C 210.812,37.188 207.145,40.8547 204.5,45.5C 203.31,47.3545 201.977,49.1879 200.5,51C 199.251,51.7401 198.251,51.5735 197.5,50.5C 197.767,47.1251 198.767,43.9584 200.5,41C 198.809,38.4294 197.809,35.596 197.5,32.5 Z"/></g>
<g><path style="opacity:1" fill="#1d3555" d="M 215.5,34.5 C 215.573,36.0269 214.906,37.0269 213.5,37.5C 210.5,39.8333 207.833,42.5 205.5,45.5C 205.167,45.5 204.833,45.5 204.5,45.5C 207.145,40.8547 210.812,37.188 215.5,34.5 Z"/></g>
<g><path style="opacity:1" fill="#2a4362" d="M 196.5,32.5 C 192.156,38.0187 188.489,43.352 185.5,48.5C 187.048,44.4023 188.881,40.4023 191,36.5C 192.451,34.5359 194.284,33.2026 196.5,32.5 Z"/></g>
<g><path style="opacity:1" fill="#5e8aa6" d="M 257.5,46.5 C 255.203,48.2941 253.037,50.2941 251,52.5C 250.26,53.7494 250.427,54.7494 251.5,55.5C 251.435,55.9382 251.601,56.2716 252,56.5C 253.667,54.8333 255.333,53.1667 257,51.5C 262.912,57.6934 268.079,64.3601 272.5,71.5C 270.623,76.3645 267.956,80.6979 264.5,84.5C 259.483,76.9711 253.483,70.1377 246.5,64C 246.833,63.6667 247.167,63.3333 247.5,63C 245.5,63.6667 243.5,64.3333 241.5,65C 242.5,64 243.5,63 244.5,62C 239.185,58.3209 233.185,54.9876 226.5,52C 219.319,49.9624 212.319,47.7957 205.5,45.5C 207.833,42.5 210.5,39.8333 213.5,37.5C 214.793,38.6448 215.959,38.3115 217,36.5C 228.738,39.4635 239.238,44.7969 248.5,52.5C 250.984,50.517 253.317,48.3504 255.5,46C 256.437,45.3083 257.103,45.475 257.5,46.5 Z"/></g>
<g><path style="opacity:1" fill="#5b86a1" d="M 184.5,34.5 C 184.833,34.5 185.167,34.5 185.5,34.5C 183.219,39.3935 181.219,44.3935 179.5,49.5C 178.883,49.3893 178.383,49.056 178,48.5C 177.781,49.938 177.281,51.2713 176.5,52.5C 169.1,55.3669 162.1,59.0335 155.5,63.5C 152.145,59.8133 148.811,56.1466 145.5,52.5C 149.738,48.7722 154.405,45.6055 159.5,43C 167.68,39.4404 176.014,36.6071 184.5,34.5 Z"/></g>
<g><path style="opacity:1" fill="#71a0bf" d="M 138.5,50.5 C 139.5,50.8333 140.167,51.5 140.5,52.5C 140.733,54.0618 141.4,55.3951 142.5,56.5C 140.629,56.1412 139.129,55.1412 138,53.5C 133.424,58.9867 129.091,64.6533 125,70.5C 123.705,72.565 123.205,74.565 123.5,76.5C 121.609,73.3858 120.276,70.0525 119.5,66.5C 119.662,58.3368 122.996,51.5035 129.5,46C 132.776,47.2365 135.609,49.4032 138,52.5C 138.464,51.9056 138.631,51.2389 138.5,50.5 Z"/></g>
<g><path style="opacity:1" fill="#33a3e1" d="M 151.5,63.5 C 148.167,59.5 144.5,55.8333 140.5,52.5C 140.167,51.5 139.5,50.8333 138.5,50.5C 138.369,49.7611 138.536,49.0944 139,48.5C 143.833,53.3333 148.667,58.1667 153.5,63C 152.906,63.4643 152.239,63.631 151.5,63.5 Z"/></g>
<g><path style="opacity:1" fill="#2874a8" d="M 261.5,41.5 C 262.239,41.369 262.906,41.5357 263.5,42C 259.663,46.6686 255.663,51.1686 251.5,55.5C 250.427,54.7494 250.26,53.7494 251,52.5C 253.037,50.2941 255.203,48.2941 257.5,46.5C 258.13,44.2929 259.464,42.6262 261.5,41.5 Z"/></g>
<g><path style="opacity:1" fill="#4b7994" d="M 196.5,32.5 C 196.833,32.5 197.167,32.5 197.5,32.5C 197.809,35.596 198.809,38.4294 200.5,41C 198.767,43.9584 197.767,47.1251 197.5,50.5C 195.493,49.3215 195.16,49.8215 196.5,52C 201.645,53.0297 204.312,50.8631 204.5,45.5C 204.833,45.5 205.167,45.5 205.5,45.5C 212.319,47.7957 219.319,49.9624 226.5,52C 233.185,54.9876 239.185,58.3209 244.5,62C 243.5,63 242.5,64 241.5,65C 243.5,64.3333 245.5,63.6667 247.5,63C 247.167,63.3333 246.833,63.6667 246.5,64C 253.483,70.1377 259.483,76.9711 264.5,84.5C 262.167,87.1667 259.833,89.8333 257.5,92.5C 253.808,94.3437 250.475,96.6771 247.5,99.5C 246.833,99.5 246.167,99.5 245.5,99.5C 236.827,68.8064 216.494,55.6398 184.5,60C 164.97,66.3611 152.97,79.5277 148.5,99.5C 147.833,99.5 147.167,99.5 146.5,99.5C 145.564,98.0256 144.23,97.0256 142.5,96.5C 137.206,92.8734 132.539,88.54 128.5,83.5C 130.097,82.9095 131.431,81.9095 132.5,80.5C 137.132,74.2969 141.965,68.2969 147,62.5C 147.671,63.2524 148.504,63.5858 149.5,63.5C 150.167,63.5 150.833,63.5 151.5,63.5C 152.239,63.631 152.906,63.4643 153.5,63C 148.667,58.1667 143.833,53.3333 139,48.5C 138.536,49.0944 138.369,49.7611 138.5,50.5C 135.334,48.1663 132.667,45.3329 130.5,42C 132.282,41.8782 133.948,42.3782 135.5,43.5C 138.808,46.4715 142.141,49.4715 145.5,52.5C 148.811,56.1466 152.145,59.8133 155.5,63.5C 162.1,59.0335 169.1,55.3669 176.5,52.5C 177.281,51.2713 177.781,49.938 178,48.5C 178.383,49.056 178.883,49.3893 179.5,49.5C 181.683,50.8434 183.683,50.51 185.5,48.5C 188.489,43.352 192.156,38.0187 196.5,32.5 Z"/></g>
<g><path style="opacity:1" fill="#1f3c5a" d="M 204.5,45.5 C 204.312,50.8631 201.645,53.0297 196.5,52C 195.16,49.8215 195.493,49.3215 197.5,50.5C 198.251,51.5735 199.251,51.7401 200.5,51C 201.977,49.1879 203.31,47.3545 204.5,45.5 Z"/></g>
<g><path style="opacity:1" fill="#284d75" d="M 140.5,52.5 C 144.5,55.8333 148.167,59.5 151.5,63.5C 150.833,63.5 150.167,63.5 149.5,63.5C 147.5,60.8333 145.167,58.5 142.5,56.5C 141.4,55.3951 140.733,54.0618 140.5,52.5 Z"/></g>
<g><path style="opacity:1" fill="#628ca8" d="M 142.5,56.5 C 145.167,58.5 147.5,60.8333 149.5,63.5C 148.504,63.5858 147.671,63.2524 147,62.5C 141.965,68.2969 137.132,74.2969 132.5,80.5C 131.431,81.9095 130.097,82.9095 128.5,83.5C 126.478,81.4687 124.811,79.1354 123.5,76.5C 123.205,74.565 123.705,72.565 125,70.5C 129.091,64.6533 133.424,58.9867 138,53.5C 139.129,55.1412 140.629,56.1412 142.5,56.5 Z"/></g>
<g><path style="opacity:1" fill="#dfe7ec" d="M 278.5,88.5 C 282.161,88.3501 283.161,89.8501 281.5,93C 277.707,93.4866 276.707,91.9866 278.5,88.5 Z"/></g>
<g><path style="opacity:1" fill="#e1ebf0" d="M 267.5,94.5 C 269.582,95.5849 269.916,97.0849 268.5,99C 265.738,100.077 264.072,99.2436 263.5,96.5C 264.287,94.8958 265.62,94.2291 267.5,94.5 Z"/></g>
<g><path style="opacity:1" fill="#d5e1e9" d="M 277.5,94.5 C 278.995,94.4148 279.995,95.0815 280.5,96.5C 278.454,99.2323 277.62,102.232 278,105.5C 278.718,104.549 279.551,104.383 280.5,105C 278.628,107.944 275.961,109.111 272.5,108.5C 273.381,103.52 275.048,98.8536 277.5,94.5 Z"/></g>
<g><path style="opacity:1" fill="#0d456b" d="M 267.5,94.5 C 265.62,94.2291 264.287,94.8958 263.5,96.5C 262.427,97.2506 262.26,98.2506 263,99.5C 264.719,100.869 266.552,101.869 268.5,102.5C 267.167,102.5 265.833,102.5 264.5,102.5C 264.5,108.5 264.5,114.5 264.5,120.5C 263.673,115.015 263.173,109.348 263,103.5C 262.333,109.5 262.333,115.5 263,121.5C 263.935,124.102 265.768,125.602 268.5,126C 265.172,137.322 259.505,147.322 251.5,156C 253.329,157.113 254.163,158.613 254,160.5C 250.571,156.561 246.737,153.228 242.5,150.5C 241.761,150.369 241.094,150.536 240.5,151C 245.369,156.037 250.369,160.87 255.5,165.5C 255.5,166.167 255.5,166.833 255.5,167.5C 255.565,167.938 255.399,168.272 255,168.5C 250.7,165.202 246.7,161.535 243,157.5C 242.667,159.047 243.167,160.38 244.5,161.5C 238.492,167.161 231.492,171.161 223.5,173.5C 222.808,174.025 222.308,174.692 222,175.5C 221.667,173.167 221.333,170.833 221,168.5C 220.802,170.382 220.302,172.048 219.5,173.5C 219.896,170.956 219.229,168.789 217.5,167C 213.642,166.19 209.976,166.357 206.5,167.5C 205.508,174.648 205.175,181.981 205.5,189.5C 204.671,182.345 204.171,175.011 204,167.5C 203.579,171.872 202.912,176.205 202,180.5C 201.517,179.552 201.351,178.552 201.5,177.5C 198.223,177.216 195.057,177.549 192,178.5C 191.259,175.438 191.425,172.438 192.5,169.5C 191.683,166.158 189.683,164.658 186.5,165C 187.942,165.377 188.942,166.21 189.5,167.5C 188.178,167.33 187.011,167.663 186,168.5C 185.273,172.642 184.273,176.642 183,180.5C 182,176.5 181,172.5 180,168.5C 178.667,167.167 177.333,167.167 176,168.5C 176.941,174.804 178.107,181.137 179.5,187.5C 177.681,186.416 176.015,185.082 174.5,183.5C 162.274,180.059 151.607,174.059 142.5,165.5C 140.35,167.149 138.35,168.982 136.5,171C 134.408,171.851 132.408,172.518 130.5,173C 131.705,171.624 133.038,170.458 134.5,169.5C 141.519,163.499 147.519,157.166 152.5,150.5C 152.103,149.475 151.437,149.308 150.5,150C 147.984,152.683 145.317,155.183 142.5,157.5C 133.944,148.056 128.277,137.056 125.5,124.5C 122.788,123.788 121.121,122.121 120.5,119.5C 120.435,119.062 120.601,118.728 121,118.5C 121.465,119.931 122.299,121.097 123.5,122C 126.833,122.667 130.167,122.667 133.5,122C 130.305,121.819 127.305,121.319 124.5,120.5C 134.692,122.473 139.359,118.307 138.5,108C 138.737,97.7617 133.737,93.9284 123.5,96.5C 127.312,95.6762 131.312,95.1762 135.5,95C 134.549,94.2825 134.383,93.4491 135,92.5C 136.925,93.8804 138.759,95.3804 140.5,97C 141.437,97.6917 142.103,97.525 142.5,96.5C 144.23,97.0256 145.564,98.0256 146.5,99.5C 144.626,129.451 157.96,148.951 186.5,158C 215.815,160.94 235.648,148.773 246,121.5C 247.348,114.239 247.848,106.906 247.5,99.5C 250.475,96.6771 253.808,94.3437 257.5,92.5C 259.371,92.1412 260.871,91.1412 262,89.5C 262.979,92.2196 264.812,93.8862 267.5,94.5 Z"/></g>
<g><path style="opacity:1" fill="#e6eef3" d="M 119.5,99.5 C 119.98,102.685 119.314,105.519 117.5,108C 121.582,112.551 121.249,116.884 116.5,121C 114.19,121.497 111.857,121.663 109.5,121.5C 106.924,119.112 105.924,116.112 106.5,112.5C 107.552,112.351 108.552,112.517 109.5,113C 113.003,119.06 114.836,118.56 115,111.5C 113.89,109.963 112.39,109.297 110.5,109.5C 110.5,108.5 110.5,107.5 110.5,106.5C 113.779,105.969 115.113,103.969 114.5,100.5C 111.5,100.167 110.167,101.5 110.5,104.5C 106.775,104.22 105.608,102.22 107,98.5C 111.428,95.6579 115.594,95.9912 119.5,99.5 Z"/></g>
<g><path style="opacity:1" fill="#f3f8fb" d="M 123.5,96.5 C 133.737,93.9284 138.737,97.7617 138.5,108C 139.359,118.307 134.692,122.473 124.5,120.5C 123.833,120.5 123.5,120.167 123.5,119.5C 123.5,111.833 123.5,104.167 123.5,96.5 Z"/></g>
<g><path style="opacity:1" fill="#5d7f96" d="M 128.5,100.5 C 128.5,105.5 128.5,110.5 128.5,115.5C 129.209,116.404 130.209,116.737 131.5,116.5C 130.432,117.434 129.099,117.768 127.5,117.5C 127.178,111.642 127.511,105.975 128.5,100.5 Z"/></g>
<g><path style="opacity:1" fill="#0b446b" d="M 132.5,115.5 C 132.5,116.167 132.167,116.5 131.5,116.5C 130.209,116.737 129.209,116.404 128.5,115.5C 129.326,111.018 129.826,106.351 130,101.5C 131.103,103.629 131.603,105.963 131.5,108.5C 131.468,110.759 131.134,112.925 130.5,115C 131.094,115.464 131.761,115.631 132.5,115.5 Z"/></g>
<g><path style="opacity:1" fill="#e5ebee" d="M 268.5,102.5 C 269.624,108.752 269.79,115.085 269,121.5C 266.878,124.183 265.378,123.85 264.5,120.5C 264.5,114.5 264.5,108.5 264.5,102.5C 265.833,102.5 267.167,102.5 268.5,102.5 Z"/></g>
<g><path style="opacity:1" fill="#15203a" d="M 128.5,100.5 C 130.39,100.297 131.89,100.963 133,102.5C 133.768,106.92 133.602,111.253 132.5,115.5C 131.761,115.631 131.094,115.464 130.5,115C 131.134,112.925 131.468,110.759 131.5,108.5C 131.603,105.963 131.103,103.629 130,101.5C 129.826,106.351 129.326,111.018 128.5,115.5C 128.5,110.5 128.5,105.5 128.5,100.5 Z"/></g>
<g><path style="opacity:1" fill="#153c57" d="M 245.5,99.5 C 248.026,125.637 237.36,143.804 213.5,154C 181.7,161.519 160.2,150.019 149,119.5C 147.418,112.804 147.251,106.137 148.5,99.5C 152.97,79.5277 164.97,66.3611 184.5,60C 216.494,55.6398 236.827,68.8064 245.5,99.5 Z"/></g>
<g><path style="opacity:1" fill="#2977a4" d="M 214.5,64.5 C 182.391,56.8818 161.058,68.5484 150.5,99.5C 155.034,78.1332 168.034,65.2998 189.5,61C 198.318,59.7158 206.652,60.8825 214.5,64.5 Z"/></g>
<g><path style="opacity:1" fill="#28739f" d="M 214.5,64.5 C 220.08,66.2326 225.08,69.0659 229.5,73C 232.462,75.7815 234.796,78.9482 236.5,82.5C 233.734,79.8363 231.067,77.003 228.5,74C 223.941,70.5629 219.274,67.3963 214.5,64.5 Z"/></g>
<g><path style="opacity:1" fill="#07142b" d="M 123.5,119.5 C 123.5,120.167 123.833,120.5 124.5,120.5C 127.305,121.319 130.305,121.819 133.5,122C 130.167,122.667 126.833,122.667 123.5,122C 122.299,121.097 121.465,119.931 121,118.5C 120.601,118.728 120.435,119.062 120.5,119.5C 117.213,122.534 113.546,123.2 109.5,121.5C 111.857,121.663 114.19,121.497 116.5,121C 121.249,116.884 121.582,112.551 117.5,108C 119.314,105.519 119.98,102.685 119.5,99.5C 120.683,99.8442 121.516,99.1775 122,97.5C 122.171,105.011 122.671,112.345 123.5,119.5 Z"/></g>
<g><path style="opacity:1" fill="#359cd5" d="M 214.5,64.5 C 219.274,67.3963 223.941,70.5629 228.5,74C 231.067,77.003 233.734,79.8363 236.5,82.5C 239.7,86.5613 241.867,91.228 243,96.5C 243.667,103.5 243.667,110.5 243,117.5C 242.79,119.058 242.29,120.391 241.5,121.5C 235.976,135.025 226.643,145.025 213.5,151.5C 211.723,152.6 209.723,153.434 207.5,154C 200.167,154.667 192.833,154.667 185.5,154C 179.891,152.529 174.891,150.029 170.5,146.5C 155.895,134.282 149.228,118.615 150.5,99.5C 161.058,68.5484 182.391,56.8818 214.5,64.5 Z"/></g>
<g><path style="opacity:1" fill="#f2f4f6" d="M 183.5,84.5 C 196.445,90.639 209.111,97.3056 221.5,104.5C 221.5,105.167 221.833,105.5 222.5,105.5C 222.872,108.923 221.539,111.423 218.5,113C 210.005,117.413 201.672,122.08 193.5,127C 189.909,129.805 185.909,130.805 181.5,130C 180.619,129.292 179.953,128.458 179.5,127.5C 179.333,114.163 179.5,100.829 180,87.5C 181.039,86.2899 182.206,85.2899 183.5,84.5 Z"/></g>
<g><path style="opacity:1" fill="#092d47" d="M 214.5,106.5 C 204.658,102.912 195.325,98.2458 186.5,92.5C 185.504,98.7985 185.17,105.132 185.5,111.5C 185.5,115.167 185.5,118.833 185.5,122.5C 184.833,122.5 184.167,122.5 183.5,122.5C 183.168,111.48 183.501,100.48 184.5,89.5C 194.887,94.6878 204.887,100.354 214.5,106.5 Z"/></g>
<g><path style="opacity:1" fill="#1a6791" d="M 214.5,106.5 C 215.675,106.281 216.675,106.614 217.5,107.5C 217.376,108.107 217.043,108.44 216.5,108.5C 211.383,107.222 207.05,108.555 203.5,112.5C 197.69,111.51 191.69,111.177 185.5,111.5C 185.17,105.132 185.504,98.7985 186.5,92.5C 195.325,98.2458 204.658,102.912 214.5,106.5 Z"/></g>
<g><path style="opacity:1" fill="#276e94" d="M 235.5,86.5 C 240.52,94.596 242.186,103.263 240.5,112.5C 240.82,109.102 240.487,105.768 239.5,102.5C 234.669,104.777 229.669,106.444 224.5,107.5C 224.817,104.466 223.817,103.466 221.5,104.5C 209.111,97.3056 196.445,90.639 183.5,84.5C 182.749,83.4265 181.749,83.2599 180.5,84C 179.333,85.1667 178.167,86.3333 177,87.5C 176.5,94.8258 176.334,102.159 176.5,109.5C 168.528,108.176 160.862,105.843 153.5,102.5C 153.034,98.0184 154.034,94.0184 156.5,90.5C 157.97,89.7754 159.136,88.1088 160,85.5C 161.609,86.1501 163.109,85.6501 164.5,84C 172.333,81.9023 180.166,79.7356 188,77.5C 192.203,78.0517 196.703,78.7184 201.5,79.5C 208.489,78.1294 215.489,78.9627 222.5,82C 226.728,83.7108 230.895,85.5441 235,87.5C 235.399,87.2716 235.565,86.9382 235.5,86.5 Z"/></g>
<g><path style="opacity:1" fill="#316988" d="M 235.5,86.5 C 235.565,86.9382 235.399,87.2716 235,87.5C 230.895,85.5441 226.728,83.7108 222.5,82C 215.489,78.9627 208.489,78.1294 201.5,79.5C 196.703,78.7184 192.203,78.0517 188,77.5C 180.166,79.7356 172.333,81.9023 164.5,84C 163.109,85.6501 161.609,86.1501 160,85.5C 159.136,88.1088 157.97,89.7754 156.5,90.5C 163.958,73.0847 177.291,64.0847 196.5,63.5C 214.005,63.7451 227.005,71.4118 235.5,86.5 Z"/></g>
<g><path style="opacity:1" fill="#114f7a" d="M 183.5,84.5 C 182.206,85.2899 181.039,86.2899 180,87.5C 179.5,100.829 179.333,114.163 179.5,127.5C 178.475,127.897 178.308,128.563 179,129.5C 180.182,131.357 181.849,132.357 184,132.5C 190.587,129.788 197.087,126.955 203.5,124C 209.166,119.831 215.166,116.165 221.5,113C 223.646,110.643 223.979,108.143 222.5,105.5C 221.833,105.5 221.5,105.167 221.5,104.5C 223.817,103.466 224.817,104.466 224.5,107.5C 229.669,106.444 234.669,104.777 239.5,102.5C 240.487,105.768 240.82,109.102 240.5,112.5C 237.757,133.411 226.091,146.244 205.5,151C 174.132,153.49 156.465,139.156 152.5,108C 152.506,105.967 152.839,104.134 153.5,102.5C 160.862,105.843 168.528,108.176 176.5,109.5C 176.334,102.159 176.5,94.8258 177,87.5C 178.167,86.3333 179.333,85.1667 180.5,84C 181.749,83.2599 182.749,83.4265 183.5,84.5 Z"/></g>
<g><path style="opacity:1" fill="#166790" d="M 146.5,99.5 C 147.167,99.5 147.833,99.5 148.5,99.5C 147.251,106.137 147.418,112.804 149,119.5C 160.2,150.019 181.7,161.519 213.5,154C 237.36,143.804 248.026,125.637 245.5,99.5C 246.167,99.5 246.833,99.5 247.5,99.5C 247.848,106.906 247.348,114.239 246,121.5C 235.648,148.773 215.815,160.94 186.5,158C 157.96,148.951 144.626,129.451 146.5,99.5 Z"/></g>
<g><path style="opacity:1" fill="#2b7cab" d="M 241.5,121.5 C 237.367,136.301 228.034,146.301 213.5,151.5C 226.643,145.025 235.976,135.025 241.5,121.5 Z"/></g>
<g><path style="opacity:1" fill="#2976a3" d="M 150.5,99.5 C 149.228,118.615 155.895,134.282 170.5,146.5C 153.711,135.132 147.045,119.465 150.5,99.5 Z"/></g>
<g><path style="opacity:1" fill="#497c98" d="M 216.5,108.5 C 205.935,114.949 194.935,120.616 183.5,125.5C 183.5,124.5 183.5,123.5 183.5,122.5C 184.167,122.5 184.833,122.5 185.5,122.5C 191.493,119.22 197.493,115.886 203.5,112.5C 207.05,108.555 211.383,107.222 216.5,108.5 Z"/></g>
<g><path style="opacity:1" fill="#112135" d="M 222.5,105.5 C 223.979,108.143 223.646,110.643 221.5,113C 215.166,116.165 209.166,119.831 203.5,124C 197.087,126.955 190.587,129.788 184,132.5C 181.849,132.357 180.182,131.357 179,129.5C 178.308,128.563 178.475,127.897 179.5,127.5C 179.953,128.458 180.619,129.292 181.5,130C 185.909,130.805 189.909,129.805 193.5,127C 201.672,122.08 210.005,117.413 218.5,113C 221.539,111.423 222.872,108.923 222.5,105.5 Z"/></g>
<g><path style="opacity:1" fill="#115888" d="M 185.5,111.5 C 191.69,111.177 197.69,111.51 203.5,112.5C 197.493,115.886 191.493,119.22 185.5,122.5C 185.5,118.833 185.5,115.167 185.5,111.5 Z"/></g>
<g><path style="opacity:1" fill="#39a3da" d="M 242.5,150.5 C 247.229,155.224 251.563,160.224 255.5,165.5C 250.369,160.87 245.369,156.037 240.5,151C 241.094,150.536 241.761,150.369 242.5,150.5 Z"/></g>
<g><path style="opacity:1" fill="#36a6e3" d="M 152.5,150.5 C 147.519,157.166 141.519,163.499 134.5,169.5C 139.775,162.556 145.775,156.223 152.5,150.5 Z"/></g>
<g><path style="opacity:1" fill="#64b3db" d="M 206.5,167.5 C 209.976,166.357 213.642,166.19 217.5,167C 219.229,168.789 219.896,170.956 219.5,173.5C 219.672,174.492 219.338,175.158 218.5,175.5C 218.945,172.635 218.278,170.135 216.5,168C 213.183,167.502 209.85,167.335 206.5,167.5 Z"/></g>
<g><path style="opacity:1" fill="#2987bf" d="M 255.5,165.5 C 258.719,167.528 260.886,170.195 262,173.5C 259.963,171.294 257.797,169.294 255.5,167.5C 255.5,166.833 255.5,166.167 255.5,165.5 Z"/></g>
<g><path style="opacity:1" fill="#e8eff3" d="M 189.5,167.5 C 190.139,168.097 190.472,168.93 190.5,170C 188.715,176.74 187.382,183.573 186.5,190.5C 184.473,190.662 182.473,190.495 180.5,190C 179.748,189.329 179.414,188.496 179.5,187.5C 178.107,181.137 176.941,174.804 176,168.5C 177.333,167.167 178.667,167.167 180,168.5C 181,172.5 182,176.5 183,180.5C 184.273,176.642 185.273,172.642 186,168.5C 187.011,167.663 188.178,167.33 189.5,167.5 Z"/></g>
<g><path style="opacity:1" fill="#eff3f6" d="M 206.5,167.5 C 209.85,167.335 213.183,167.502 216.5,168C 218.278,170.135 218.945,172.635 218.5,175.5C 217.205,177.372 217.372,179.038 219,180.5C 219.497,183.146 219.664,185.813 219.5,188.5C 218.391,192.029 216.558,192.362 214,189.5C 213.503,186.854 213.336,184.187 213.5,181.5C 212.432,180.566 211.099,180.232 209.5,180.5C 209.5,183.5 209.5,186.5 209.5,189.5C 209.027,190.906 208.027,191.573 206.5,191.5C 206.167,190.833 205.833,190.167 205.5,189.5C 205.175,181.981 205.508,174.648 206.5,167.5 Z"/></g>
<g><path style="opacity:1" fill="#5185a5" d="M 213.5,171.5 C 212.5,171.5 211.5,171.5 210.5,171.5C 210.077,173.781 210.744,175.448 212.5,176.5C 211.791,177.404 210.791,177.737 209.5,177.5C 209.5,175.167 209.5,172.833 209.5,170.5C 211.099,170.232 212.432,170.566 213.5,171.5 Z"/></g>
<g><path style="opacity:1" fill="#182e4f" d="M 213.5,171.5 C 214.93,173.455 214.597,175.121 212.5,176.5C 210.744,175.448 210.077,173.781 210.5,171.5C 211.5,171.5 212.5,171.5 213.5,171.5 Z"/></g>
<g><path style="opacity:1" fill="#407392" d="M 213.5,181.5 C 212.5,181.5 211.5,181.5 210.5,181.5C 210.806,184.385 210.473,187.052 209.5,189.5C 209.5,186.5 209.5,183.5 209.5,180.5C 211.099,180.232 212.432,180.566 213.5,181.5 Z"/></g>
<g><path style="opacity:1" fill="#cddfea" d="M 194.5,182.5 C 196.256,183.552 196.923,185.219 196.5,187.5C 198.167,187.5 199.833,187.5 201.5,187.5C 201.5,188.5 201.5,189.5 201.5,190.5C 200.167,190.5 198.833,190.5 197.5,190.5C 197.884,192.665 197.217,194.332 195.5,195.5C 194.548,193.955 194.215,192.288 194.5,190.5C 192.335,190.884 190.668,190.217 189.5,188.5C 191.045,187.548 192.712,187.215 194.5,187.5C 194.5,185.833 194.5,184.167 194.5,182.5 Z"/></g>
<g><path style="opacity:1" fill="#04132d" d="M 213.5,181.5 C 213.336,184.187 213.503,186.854 214,189.5C 216.558,192.362 218.391,192.029 219.5,188.5C 220.791,189.542 220.791,190.708 219.5,192C 216.975,192.896 214.808,192.396 213,190.5C 212.333,179.833 211.667,179.833 211,190.5C 209.534,192.325 207.701,192.825 205.5,192C 205.728,191.601 206.062,191.435 206.5,191.5C 208.027,191.573 209.027,190.906 209.5,189.5C 210.473,187.052 210.806,184.385 210.5,181.5C 211.5,181.5 212.5,181.5 213.5,181.5 Z"/></g>
<g><path style="opacity:0.408" fill="#fefffe" d="M 305.5,235.5 C 309.473,236.075 310.473,238.242 308.5,242C 305.771,242.801 304.105,241.801 303.5,239C 303.862,237.566 304.528,236.399 305.5,235.5 Z"/></g>
<g><path style="opacity:0.767" fill="#fefffe" d="M 103.5,259.5 C 99.1667,259.5 94.8333,259.5 90.5,259.5C 91.038,257.883 91.3713,256.216 91.5,254.5C 94.5,254.5 97.5,254.5 100.5,254.5C 100.5,253.167 100.5,251.833 100.5,250.5C 98.5,250.5 96.5,250.5 94.5,250.5C 93.8224,246.727 95.1558,243.894 98.5,242C 96.1902,241.503 93.8568,241.337 91.5,241.5C 91.5,239.833 91.5,238.167 91.5,236.5C 96.8333,236.5 102.167,236.5 107.5,236.5C 108.007,240.67 106.341,243.67 102.5,245.5C 108.776,249.803 109.109,254.469 103.5,259.5 Z"/></g>
<g><path style="opacity:0.8" fill="#fefffe" d="M 124.5,259.5 C 119.5,259.5 114.5,259.5 109.5,259.5C 109.5,251.833 109.5,244.167 109.5,236.5C 115.657,235.919 121.49,236.919 127,239.5C 130.965,246.878 130.131,253.545 124.5,259.5 Z M 116.5,241.5 C 121.365,241.366 123.365,243.699 122.5,248.5C 123.492,253.508 121.492,255.508 116.5,254.5C 116.5,250.167 116.5,245.833 116.5,241.5 Z"/></g>
<g><path style="opacity:0.764" fill="#fefffe" d="M 146.5,259.5 C 142.833,259.5 139.167,259.5 135.5,259.5C 134.828,258.733 133.995,258.066 133,257.5C 132.5,250.508 132.334,243.508 132.5,236.5C 137.167,236.5 141.833,236.5 146.5,236.5C 146.5,237.833 146.5,239.167 146.5,240.5C 143.167,240.5 139.833,240.5 136.5,240.5C 136.5,242.5 136.5,244.5 136.5,246.5C 139.5,246.5 142.5,246.5 145.5,246.5C 145.5,247.5 145.5,248.5 145.5,249.5C 142.5,249.5 139.5,249.5 136.5,249.5C 136.201,251.604 136.534,253.604 137.5,255.5C 140.421,256.407 143.421,256.74 146.5,256.5C 146.5,257.5 146.5,258.5 146.5,259.5 Z"/></g>
<g><path style="opacity:0.74" fill="#fefffe" d="M 167.5,259.5 C 165.833,259.5 164.167,259.5 162.5,259.5C 160.828,256.978 159.328,254.312 158,251.5C 155.946,254.047 154.113,256.714 152.5,259.5C 150.833,259.5 149.167,259.5 147.5,259.5C 150.311,255.841 152.978,252.007 155.5,248C 152.795,244.758 150.461,241.258 148.5,237.5C 150.611,236.152 152.445,236.485 154,238.5C 155.333,240.5 156.667,242.5 158,244.5C 159.833,242 161.667,239.5 163.5,237C 164.944,236.219 166.277,236.386 167.5,237.5C 164.917,240.997 162.584,244.664 160.5,248.5C 163.281,251.934 165.614,255.601 167.5,259.5 Z"/></g>
<g><path style="opacity:0.731" fill="#fefffe" d="M 174.5,259.5 C 172.833,259.5 171.167,259.5 169.5,259.5C 169.5,251.833 169.5,244.167 169.5,236.5C 172.85,236.335 176.183,236.502 179.5,237C 185.161,238.779 186.995,242.612 185,248.5C 182.103,251.231 178.603,252.231 174.5,251.5C 174.5,254.167 174.5,256.833 174.5,259.5 Z M 174.5,240.5 C 181.084,240.004 182.751,242.504 179.5,248C 177.866,248.494 176.199,248.66 174.5,248.5C 174.5,245.833 174.5,243.167 174.5,240.5 Z"/></g>
<g><path style="opacity:0.696" fill="#fefffe" d="M 202.5,259.5 C 198.5,259.5 194.5,259.5 190.5,259.5C 189.496,258.317 188.662,256.984 188,255.5C 187.5,249.175 187.334,242.842 187.5,236.5C 192.5,236.5 197.5,236.5 202.5,236.5C 202.5,237.833 202.5,239.167 202.5,240.5C 199.167,240.5 195.833,240.5 192.5,240.5C 192.5,242.5 192.5,244.5 192.5,246.5C 195.5,246.5 198.5,246.5 201.5,246.5C 201.5,247.5 201.5,248.5 201.5,249.5C 198.5,249.5 195.5,249.5 192.5,249.5C 192.201,251.604 192.534,253.604 193.5,255.5C 196.421,256.407 199.421,256.74 202.5,256.5C 202.5,257.5 202.5,258.5 202.5,259.5 Z"/></g>
<g><path style="opacity:0.712" fill="#fefffe" d="M 221.5,259.5 C 220.167,259.5 218.833,259.5 217.5,259.5C 216.962,253.78 213.962,251.28 208.5,252C 209.435,254.381 209.768,256.881 209.5,259.5C 207.833,259.5 206.167,259.5 204.5,259.5C 204.5,251.833 204.5,244.167 204.5,236.5C 210.024,235.898 215.19,236.898 220,239.5C 222.226,243.807 221.393,247.307 217.5,250C 219.902,252.703 221.235,255.87 221.5,259.5 Z M 209.5,240.5 C 215.297,239.52 217.297,241.687 215.5,247C 213.527,247.495 211.527,247.662 209.5,247.5C 209.5,245.167 209.5,242.833 209.5,240.5 Z"/></g>
<g><path style="opacity:0.814" fill="#fefffe" d="M 228.5,259.5 C 227.167,259.5 225.833,259.5 224.5,259.5C 224.5,251.833 224.5,244.167 224.5,236.5C 225.833,236.5 227.167,236.5 228.5,236.5C 228.5,244.167 228.5,251.833 228.5,259.5 Z"/></g>
<g><path style="opacity:0.766" fill="#fefffe" d="M 246.5,259.5 C 242.833,259.5 239.167,259.5 235.5,259.5C 234.828,258.733 233.995,258.066 233,257.5C 232.5,250.508 232.334,243.508 232.5,236.5C 237.167,236.5 241.833,236.5 246.5,236.5C 246.5,237.833 246.5,239.167 246.5,240.5C 243.167,240.5 239.833,240.5 236.5,240.5C 236.5,242.5 236.5,244.5 236.5,246.5C 239.5,246.5 242.5,246.5 245.5,246.5C 245.5,247.5 245.5,248.5 245.5,249.5C 242.5,249.5 239.5,249.5 236.5,249.5C 236.201,251.604 236.534,253.604 237.5,255.5C 240.421,256.407 243.421,256.74 246.5,256.5C 246.5,257.5 246.5,258.5 246.5,259.5 Z"/></g>
<g><path style="opacity:0.739" fill="#fefffe" d="M 268.5,259.5 C 267.167,259.5 265.833,259.5 264.5,259.5C 264.66,257.801 264.494,256.134 264,254.5C 260.9,250.644 257.567,246.977 254,243.5C 254.395,248.747 254.562,254.08 254.5,259.5C 252.833,259.5 251.167,259.5 249.5,259.5C 249.5,251.833 249.5,244.167 249.5,236.5C 250.93,236.421 252.264,236.754 253.5,237.5C 256.818,241.318 260.318,244.985 264,248.5C 264.499,244.514 264.666,240.514 264.5,236.5C 265.833,236.5 267.167,236.5 268.5,236.5C 268.5,244.167 268.5,251.833 268.5,259.5 Z"/></g>
<g><path style="opacity:0.748" fill="#fefffe" d="M 286.5,259.5 C 282.5,259.5 278.5,259.5 274.5,259.5C 270.209,253.744 269.376,247.41 272,240.5C 275.743,236.741 280.243,235.574 285.5,237C 286.337,238.011 286.67,239.178 286.5,240.5C 283.091,240.249 279.758,240.583 276.5,241.5C 273.678,246.571 274.011,251.404 277.5,256C 280.23,256.728 282.897,256.562 285.5,255.5C 286.429,256.689 286.762,258.022 286.5,259.5 Z"/></g>
<g><path style="opacity:0.764" fill="#fefffe" d="M 302.5,259.5 C 298.833,259.5 295.167,259.5 291.5,259.5C 290.828,258.733 289.995,258.066 289,257.5C 288.5,250.508 288.334,243.508 288.5,236.5C 293.167,236.5 297.833,236.5 302.5,236.5C 302.5,237.833 302.5,239.167 302.5,240.5C 299.167,240.5 295.833,240.5 292.5,240.5C 292.5,242.5 292.5,244.5 292.5,246.5C 295.5,246.5 298.5,246.5 301.5,246.5C 301.5,247.5 301.5,248.5 301.5,249.5C 298.5,249.5 295.5,249.5 292.5,249.5C 292.201,251.604 292.534,253.604 293.5,255.5C 296.421,256.407 299.421,256.74 302.5,256.5C 302.5,257.5 302.5,258.5 302.5,259.5 Z"/></g>
</svg>
