<?xml version="1.0" standalone="no"?>
<!DOCTYPE svg PUBLIC "-//W3C//DTD SVG 20010904//EN"
 "http://www.w3.org/TR/2001/REC-SVG-20010904/DTD/svg10.dtd">
<svg version="1.0" xmlns="http://www.w3.org/2000/svg"
 width="400.000000pt" height="400.000000pt" viewBox="0 0 400.000000 400.000000"
 preserveAspectRatio="xMidYMid meet">

<g transform="translate(0.000000,400.000000) scale(0.100000,-0.100000)"
fill="#000000" stroke="none">
<path d="M1555 3872 c-16 -2 -36 -8 -42 -14 -20 -16 -15 -49 7 -55 29 -8 25
-27 -9 -39 -24 -10 -29 -18 -35 -65 -4 -30 -23 -175 -42 -324 -18 -148 -36
-286 -39 -306 -6 -32 -12 -38 -62 -59 -31 -13 -71 -36 -89 -53 -31 -26 -34
-34 -34 -83 0 -30 6 -63 12 -74 10 -16 10 -24 0 -40 -6 -11 -12 -44 -12 -74 0
-50 3 -57 37 -86 20 -18 49 -37 65 -42 20 -7 28 -17 28 -34 0 -13 15 -46 34
-72 32 -44 40 -49 95 -60 59 -12 61 -14 61 -44 0 -22 -11 -43 -39 -73 -81 -88
-75 -191 16 -312 29 -40 39 -41 78 -7 29 25 29 25 3 10 -30 -17 -48 -21 -48
-8 0 4 32 34 70 66 43 36 73 69 76 85 22 97 30 80 32 -66 2 -178 -3 -212 -34
-223 -34 -13 -35 -10 33 -90 168 -195 206 -268 173 -330 -19 -35 -90 -53 -192
-48 -82 3 -103 8 -169 39 -86 41 -171 119 -189 173 -14 43 -5 63 58 128 29 30
43 51 37 57 -6 5 -68 42 -140 82 -71 39 -165 91 -208 115 -42 24 -82 44 -88
44 -23 0 -147 -81 -206 -135 -46 -41 -72 -76 -99 -130 -34 -68 -36 -79 -33
-147 6 -100 48 -186 142 -284 329 -347 966 -514 1423 -373 190 59 373 193 431
317 35 74 42 180 16 248 -45 118 -175 265 -378 429 -172 139 -206 175 -203
208 2 19 14 38 31 51 44 32 196 29 292 -6 116 -42 187 -80 237 -129 43 -40 48
-50 48 -88 0 -37 -6 -48 -50 -92 -27 -27 -50 -51 -50 -53 0 -1 131 -65 290
-141 l290 -138 31 29 c48 45 119 149 140 204 35 93 22 159 -51 256 -45 60 -98
100 -232 177 -323 186 -682 277 -1045 265 l-153 -6 20 26 c11 13 20 35 20 48
0 15 11 29 33 43 60 37 80 66 80 116 0 25 -6 56 -13 70 -11 21 -11 29 0 51 18
33 15 99 -5 131 -19 28 -70 61 -130 83 l-40 15 -71 352 c-38 193 -76 358 -83
367 -8 9 -19 16 -27 16 -21 0 -27 20 -9 34 10 7 16 22 13 36 -2 20 -10 26 -38
30 -19 3 -48 3 -65 2z m45 -321 c0 -81 7 -213 14 -292 8 -79 16 -213 18 -296
5 -185 12 -176 -137 -146 -27 5 -28 7 -10 14 17 6 17 8 3 8 -20 1 -25 21 -5
22 6 0 8 2 2 5 -15 6 1 349 19 399 11 28 16 97 18 237 l3 198 38 0 37 0 0
-149z m28 -1421 c-9 -6 -14 -18 -11 -28 2 -10 -5 -26 -16 -36 -21 -19 -56 -19
-56 1 0 13 73 73 89 73 6 0 4 -5 -6 -10z"/>
<path d="M1664 2014 c-16 -26 -48 -57 -71 -71 -36 -21 -41 -28 -33 -43 18 -33
27 -31 77 23 34 36 52 65 57 91 4 21 5 40 3 42 -2 2 -17 -16 -33 -42z"/>
<path d="M1680 1916 c-6 -18 -20 -42 -30 -51 -23 -21 -26 -45 -7 -45 24 0 47
35 53 83 8 55 0 61 -16 13z"/>
<path d="M2880 849 c-158 -61 -236 -95 -191 -83 19 5 21 3 15 -9 -5 -9 -7
-113 -4 -231 3 -139 1 -218 -5 -221 -6 -3 -5 -7 3 -11 10 -5 10 -11 -3 -30
-14 -22 -8 -34 9 -17 3 4 17 8 29 10 37 5 108 33 198 80 79 40 87 47 90 76 2
18 2 132 -1 255 -4 157 -2 221 6 218 6 -2 11 2 11 10 0 8 -1 14 -1 13 -1 0
-71 -27 -156 -60z"/>
<path d="M996 638 c1 -140 -3 -246 -8 -249 -9 -6 37 -37 117 -77 31 -15 247
-92 259 -92 1 0 3 111 5 246 2 196 0 249 -11 255 -10 7 -9 9 5 9 13 0 16 4 10
15 -8 14 -293 120 -353 132 l-25 5 1 -244z"/>
</g>
</svg>
