<?xml version="1.0" standalone="no"?>
<!DOCTYPE svg PUBLIC "-//W3C//DTD SVG 20010904//EN"
 "http://www.w3.org/TR/2001/REC-SVG-20010904/DTD/svg10.dtd">
<svg version="1.0" xmlns="http://www.w3.org/2000/svg"
 width="500.000000pt" height="500.000000pt" viewBox="0 0 500.000000 500.000000"
 preserveAspectRatio="xMidYMid meet">

<g transform="translate(0.000000,500.000000) scale(0.100000,-0.100000)"
fill="#000000" stroke="none">
<path d="M1960 4879 c-1597 -347 -1949 -424 -1954 -430 -2 -2 13 -267 35 -589
73 -1113 79 -1206 99 -1520 11 -173 29 -445 40 -605 10 -159 22 -347 26 -417
4 -74 11 -132 18 -137 13 -10 2256 -1168 2272 -1173 6 -2 524 262 1151 586
l1141 589 6 86 c4 47 15 226 26 396 11 171 29 445 40 610 11 165 29 444 40
620 11 176 27 419 35 540 8 121 26 397 41 613 14 216 23 396 20 399 -4 4 -636
-179 -820 -238 -17 -5 -33 -5 -40 0 -6 5 -222 89 -481 186 -736 277 -1222 460
-1323 499 -52 20 -106 35 -120 35 -15 -1 -128 -23 -252 -50z m2816 -1186 c-7
-37 -160 -1056 -236 -1573 -33 -228 -63 -425 -65 -437 -4 -17 -52 -46 -212
-127 -119 -61 -210 -101 -213 -96 -4 6 -53 225 -109 488 -138 638 -137 633
-144 602 -4 -14 -43 -236 -87 -495 -45 -259 -96 -557 -114 -663 -19 -106 -35
-194 -37 -196 -2 -2 -97 -52 -211 -110 l-206 -107 -6 28 c-19 88 -317 1955
-313 1959 11 11 400 155 404 150 4 -4 39 -243 79 -532 40 -290 75 -528 77
-530 2 -2 27 137 57 309 29 171 76 445 104 607 l51 295 199 77 c110 43 203 78
206 78 4 0 21 -69 39 -152 115 -542 173 -805 179 -822 5 -10 36 205 76 525 38
299 70 555 73 569 4 23 25 33 201 102 108 42 201 77 205 77 5 1 6 -11 3 -26z
m-3768 -123 c105 -25 253 -80 363 -135 319 -160 515 -379 608 -680 37 -120 64
-275 47 -275 -6 0 -129 41 -273 91 l-261 91 -16 72 c-42 187 -145 307 -308
357 -75 24 -119 14 -149 -35 -26 -43 -24 -92 7 -154 32 -64 74 -102 278 -246
395 -281 570 -452 680 -666 80 -155 110 -282 110 -455 0 -134 -16 -210 -63
-302 -128 -255 -392 -294 -794 -118 -459 201 -694 465 -801 897 -22 90 -48
248 -41 256 2 2 479 -160 538 -183 10 -4 17 -18 17 -34 0 -54 42 -196 76 -262
66 -125 158 -207 282 -248 76 -26 107 -26 151 -3 48 26 71 73 71 148 0 134
-92 250 -336 424 -516 368 -723 660 -728 1025 -1 112 14 184 54 265 28 55 94
125 141 151 81 43 215 51 347 19z"/>
</g>
</svg>
